<svg xmlns="http://www.w3.org/2000/svg" viewBox="0 0 768.26 754.32"><title>Resurs 1</title><g id="Lager_2" data-name="Lager 2"><g id="Lager_1-2" data-name="Lager 1"><path d="M248.06,29.25h-23v-19L235.31,0h66.33V19.05l-10.21,10.2H278.68v100l-10.21,10.21H248.06Zm27.22,96.61V15.65h23V3.4H238.71V15.65h23V125.86Z"/><path d="M322.9,10.21,333.1,0h20.41V55.11h5.11V10.21L368.82,0h20.41V129.26L379,139.47H358.62V84.36h-5.11v44.9l-10.2,10.21H322.9Zm27.21,115.65V70.75h22.11v55.11h13.61V3.4H372.22V58.51H350.11V3.4h-13.6V125.86Z"/><path d="M419.85,10.21,430.05,0h52.73V19.05l-10.21,10.2H450.46V55.11H476v19l-10.2,10.2H450.46v25.85h32.32v19l-10.21,10.21H419.85Zm59.53,115.65V113.62H447.06V70.75h25.51V58.51H447.06V15.65h32.32V3.4H433.45V125.86Z"/><path d="M0,214.31,10.21,204.1H27l12.08,34.36V214.31l10.2-10.21H69.73V333.36l-10.2,10.21h-17L30.61,309.72v23.64l-10.2,10.21H0ZM27.21,330V251.55L55.11,330H66.33V207.5H52.73v78.75L24.66,207.5h-11V330Z"/><path d="M97,214.31l10.2-10.21h52.73v19.05l-10.21,10.21H127.56v25.85h25.51v19.05l-10.2,10.2H127.56v25.86h32.32v19l-10.21,10.21H97ZM156.48,330V317.72H124.16V274.86h25.51V262.61H124.16V219.75h32.32V207.5H110.55V330Z"/><path d="M279.1,333.36l-10.2,10.21H241.69l-4.94-39.12-3.57,28.91L223,343.57H195.76L181.14,214.31l10.2-10.21h20.58l4.59,50.35,5.62-40.14,10.2-10.21h20.41l7,48.65,3.41-38.44,10.2-10.21h20.41Zm-49-3.4,12.42-95.07L255,330h21.26L289.82,207.5H276.21L265.5,316.36,249.68,207.5H235.39L219.57,316.36,208.86,207.5H195.25L209,330Z"/><path d="M366.86,318.06V239.82c0-8.5,2.73-15.48,7.66-20.41l10.2-10.21c4.94-4.93,11.91-7.65,20.41-7.65,16.84,0,28.07,11.23,28.07,28.06v15.31L423,255.13H402.58V238.46a7.27,7.27,0,0,0-5.1-7.31v42.69l6.8-6.81H433.2v40.82c0,8.51-2.72,15.48-7.66,20.41l-10.2,10.21c-4.93,4.93-11.91,7.65-20.41,7.65C378.09,346.12,366.86,334.9,366.86,318.06Zm62.94-10.21V270.43H407.68v12.25h8.51v26.53c0,6.64-4.42,11.06-11.06,11.06s-11.05-4.42-11.05-11.06v-81c0-6.63,4.42-11.05,11.05-11.05s11.06,4.42,11.06,11.05v13.27H429.8V229.61c0-14.79-9.87-24.66-24.67-24.66s-24.66,9.87-24.66,24.66v78.24c0,14.8,9.87,24.66,24.66,24.66S429.8,322.65,429.8,307.85Zm-27.22-11.56h-5.1v12.92a7.27,7.27,0,0,0,5.1,7.32Z"/><path d="M459.56,318.06V214.31l10.2-10.21h20.41V309.21a7.28,7.28,0,0,0,5.11,7.32V214.31l10.2-10.21h20.41V307.85c0,8.51-2.72,15.48-7.65,20.41L508,338.47c-4.93,4.93-11.9,7.65-20.41,7.65C470.78,346.12,459.56,334.9,459.56,318.06Zm62.93-10.21V207.5H508.88V309.21c0,6.64-4.42,11.06-11.05,11.06s-11.06-4.42-11.06-11.06V207.5h-13.6V307.85c0,14.8,9.86,24.66,24.66,24.66S522.49,322.65,522.49,307.85Z"/><path d="M555.65,214.31l10.21-10.21h20.41V333.36l-10.21,10.21H555.65ZM582.87,330V207.5H569.26V330Z"/><path d="M613.48,214.31l10.21-10.21h28.06c16.84,0,28.07,11.23,28.07,28.07V305.3c0,8.51-2.73,15.48-7.66,20.41L662,335.92c-4.94,4.93-11.91,7.65-20.41,7.65H613.48ZM651.75,330c14.8,0,24.66-9.86,24.66-24.66V232.17c0-14.8-9.86-24.67-24.66-24.67H627.09V330Zm-11-110.21h11c6.63,0,11.06,4.42,11.06,11.05v75.86c0,6.63-4.43,11.06-11.06,11.06h-11Zm8.5,94.57V241a7.27,7.27,0,0,0-5.1-7.31v80.62Z"/><path d="M705.33,214.31l10.2-10.21h52.73v19.05l-10.21,10.21H735.94v25.85h25.51v19.05l-10.2,10.2H735.94v25.86h32.32v19l-10.21,10.21H705.33ZM764.86,330V317.72H732.54V274.86h25.51V262.61H732.54V219.75h32.32V207.5H718.93V330Z"/><path d="M61.48,437.46h-23v-19L48.73,408.2h66.33v19.05l-10.21,10.21H92.1v100l-10.21,10.2H61.48Zm27.22,96.6V423.85h23V411.61H52.13v12.24h23V534.06Z"/><path d="M132.92,522.16V443.92c0-8.5,2.72-15.48,7.65-20.41l10.21-10.2c4.93-4.94,11.9-7.66,20.41-7.66,16.83,0,28.06,11.23,28.06,28.07V512c0,8.51-2.72,15.48-7.65,20.41l-10.21,10.21c-4.93,4.93-11.9,7.65-20.41,7.65C144.14,550.22,132.92,539,132.92,522.16ZM195.85,512V433.72c0-14.8-9.87-24.67-24.66-24.67s-24.67,9.87-24.67,24.67V512c0,14.8,9.87,24.67,24.67,24.67S195.85,526.75,195.85,512Zm-35.72,1.36V432.36c0-6.64,4.42-11.06,11.06-11.06s11.05,4.42,11.05,11.06v80.95c0,6.64-4.42,11.06-11.05,11.06S160.13,520,160.13,513.31Zm8.5-70.75a7.27,7.27,0,0,0-5.1-7.31v78.06a7.27,7.27,0,0,0,5.1,7.32Z"/><path d="M272.38,418.41l10.21-10.21h20.58l7.48,60.72,6.13-50.51L327,408.2h20.58l-18,129.27-10.2,10.2H290.41Zm54.09,115.65,17.18-122.45H330L315.93,520.46h-1.71L300.11,411.61H286.5l17.18,122.45Z"/><path d="M371.37,418.41l10.21-10.21H434.3v19.05l-10.2,10.21H402v25.85H427.5v19.05l-10.21,10.2H402v25.86H434.3v19.05l-10.2,10.2H371.37ZM430.9,534.06V521.82H398.58V479H424.1V466.71H398.58V423.85H430.9V411.61H385V534.06Z"/><path d="M460.66,522.16V443.92c0-8.5,2.72-15.48,7.66-20.41l10.2-10.2c4.93-4.94,11.91-7.66,20.41-7.66,16.84,0,28.07,11.23,28.07,28.07V449l-10.21,10.21H496.38V442.56a7.27,7.27,0,0,0-5.1-7.31v42.69l6.8-6.81H527V512c0,8.51-2.73,15.48-7.66,20.41l-10.2,10.21c-4.94,4.93-11.91,7.65-20.41,7.65C471.89,550.22,460.66,539,460.66,522.16ZM523.59,512V474.54H501.48v12.24H510v26.53c0,6.64-4.42,11.06-11.06,11.06s-11.05-4.42-11.05-11.06V432.36c0-6.64,4.42-11.06,11.05-11.06S510,425.72,510,432.36v13.26h13.6v-11.9c0-14.8-9.86-24.67-24.66-24.67s-24.66,9.87-24.66,24.67V512c0,14.8,9.86,24.67,24.66,24.67S523.59,526.75,523.59,512Zm-27.21-11.56h-5.1v12.92a7.27,7.27,0,0,0,5.1,7.32Z"/><path d="M563.74,418.41l10.2-10.21h28.91l18,129.27-10.2,10.2H590.1l-3.4-29.08h-8l-2.21,18.88-10.2,10.2H545.71Zm9.69,115.65L577.17,505h22.45l3.75,29.08H617L599.79,411.61H577L559.82,534.06Zm14.12-110.21h1.7l8.84,68.88H578.7Zm-4.77,65.48-.17-2.89-.34,2.89Z"/><path d="M644.69,418.41,654.9,408.2h16.84l12.07,34.36V418.41L694,408.2h20.41V537.47l-10.21,10.2h-17l-11.9-33.85v23.65l-10.21,10.2H644.69Zm27.22,115.65v-78.4l27.89,78.4H711V411.61H697.42v78.74l-28.06-78.74H658.3V534.06Z"/><path d="M132.66,622.51l10.21-10.2h52.72v19.05l-10.2,10.2H163.28v25.85h25.51v19.05l-10.2,10.21H163.28v25.85h32.31v19.05l-10.2,10.2H132.66Zm59.53,115.66V725.92H159.88V683.06h25.51V670.81H159.88V628h32.31V615.71H146.27V738.17Z"/><path d="M231.48,622.51l10.2-10.2H270.6l18,129.26-10.21,10.2H257.84l-3.4-29.08h-8l-2.21,18.88L234,751.77H213.45Zm9.69,115.66,3.75-29.09h22.45l3.74,29.09h13.61L267.54,615.71H244.75L227.57,738.17ZM255.29,628H257l8.85,68.89H246.45Zm-4.76,65.49-.17-2.9-.34,2.9Z"/><path d="M323.49,641.56h-23v-19l10.21-10.2h66.33v19.05l-10.21,10.2H354.11v100l-10.21,10.2H323.49Zm27.22,96.61V628h23V615.71H314.14V628h23V738.17Z"/><path d="M401.73,622.51l10.21-10.2h20.41V741.57l-10.21,10.2H401.73Zm27.21,115.66V615.71h-13.6V738.17Z"/><path d="M466.36,622.51l10.21-10.2H493.4l12.08,34.35V622.51l10.21-10.2H536.1V741.57l-10.21,10.2h-17L497,717.93v23.64l-10.21,10.2H466.36Zm27.21,115.66V659.76l27.9,78.41h11.22V615.71h-13.6v78.75L491,615.71H480V738.17Z"/><path d="M565,726.26V648c0-8.5,2.72-15.47,7.65-20.41l10.21-10.2c4.93-4.93,11.9-7.66,20.41-7.66,16.84,0,28.06,11.23,28.06,28.07v15.31l-10.2,10.2H600.73V646.66a7.28,7.28,0,0,0-5.11-7.31V682l6.81-6.8h28.91v40.82c0,8.5-2.72,15.47-7.65,20.41l-10.21,10.2c-4.93,4.93-11.9,7.65-20.41,7.65C576.23,754.32,565,743.1,565,726.26Zm62.93-10.2V678.64H605.83v12.24h8.5v26.54c0,6.63-4.42,11.05-11.05,11.05s-11.06-4.42-11.06-11.05v-81c0-6.64,4.42-11.06,11.06-11.06s11.05,4.42,11.05,11.06v13.26h13.61v-11.9c0-14.8-9.87-24.66-24.66-24.66s-24.67,9.86-24.67,24.66v78.24c0,14.79,9.87,24.66,24.67,24.66S627.94,730.85,627.94,716.06Zm-27.21-11.57h-5.11v12.93a7.26,7.26,0,0,0,5.11,7.31Z"/></g></g></svg>